<svg width="76" height="43" viewBox="0 0 76 43" fill="none" xmlns="http://www.w3.org/2000/svg">
<path d="M18.5905 15.3575C19.364 14.0433 23.6037 13.4928 23.6037 13.4928C28.0506 5.2487 35.4508 4.34738 37.9972 4.29341C40.5436 4.35008 47.9464 5.2487 52.3907 13.4928C52.3907 13.4928 56.6304 14.046 57.4039 15.3575C58.1614 16.6447 54.9771 1.07673 38.1567 0.0215885V0C38.1035 0.00269856 38.0504 0.00809568 37.9972 0.0107942C37.944 0.00809568 37.8909 0.00269856 37.8377 0V0.0215885C21.0173 1.07673 17.8356 16.6447 18.5905 15.3575Z" fill="#A8ABB2"/>
<path d="M76 14.3078C73.3206 15.398 68.1347 15.5599 68.1347 15.5599C71.1596 14.5021 70.8858 12.9423 70.8858 12.9423C70.8858 12.9423 63.9801 15.3575 63.7462 14.7233C63.515 14.0892 65.8833 13.2445 65.8833 13.2445C65.1258 12.6643 63.9908 12.6023 63.1003 12.7831C60.6921 13.2715 59.3923 15.6112 56.8538 15.8621C55.7029 15.9755 54.7725 15.595 53.6774 15.3656C53.5099 15.3305 53.3451 15.3116 53.1803 15.3008C51.9762 15.1632 50.7189 15.3413 49.4829 15.595C46.3942 16.2264 39.4354 21.5129 38.0744 26.3865C37.1733 21.2943 29.5606 16.7257 26.5144 15.595C24.9515 15.0148 23.237 14.9716 21.6847 15.5167C20.8474 15.7299 20.0659 15.9539 19.1462 15.8621C16.6077 15.6112 15.3053 13.2715 12.8997 12.7831C12.0092 12.6023 10.8742 12.667 10.1167 13.2445C10.1167 13.2445 12.485 14.0892 12.2538 14.7233C12.0225 15.3575 5.11416 12.9423 5.11416 12.9423C5.11416 12.9423 4.84037 14.4994 7.86528 15.5599C7.86528 15.5599 2.67935 15.3953 0 14.3078C0 14.3078 0.523643 18.5742 13.1628 20.8464C13.1628 20.8464 11.6451 21.1567 9.95985 21.0056C9.95985 21.0056 13.0698 23.7446 18.0511 22.4142C18.6119 27.3499 20.2307 32.148 23.6968 35.8018C26.2592 38.5031 29.5951 40.33 33.1463 41.288C34.6694 41.6982 36.3998 42.1056 37.9973 42.0382C39.5948 42.1056 41.3253 41.6982 42.8483 41.288C46.4022 40.3273 49.7355 38.5004 52.2978 35.8018C55.764 32.148 57.3828 27.3499 57.9436 22.4142C62.9249 23.7446 66.0348 21.0056 66.0348 21.0056C64.3496 21.1567 62.8318 20.8464 62.8318 20.8464C75.4737 18.5742 76 14.3078 76 14.3078ZM38.1409 37.8041C38.1409 37.8041 38.1143 37.8041 38.0691 37.8041C38.0665 37.8041 38.0611 37.8041 38.0585 37.8041C38.0425 37.8041 38.0213 37.8041 38 37.8041C37.9787 37.8041 37.9575 37.8041 37.9415 37.8041C37.9389 37.8041 37.9335 37.8041 37.9282 37.8041C37.883 37.8041 37.8565 37.8041 37.8565 37.8041C24.6032 37.2239 22.3253 26.0816 21.9345 22.193C21.8628 21.4913 22.4449 20.8869 23.136 20.957C26.23 21.2593 29.1087 22.2199 31.6233 24.1656C33.2819 25.4474 34.284 27.3391 34.7545 29.3711C35.2276 31.4139 34.6375 33.7968 35.5865 35.7235C35.9931 36.5493 36.9102 36.9136 37.8379 36.973V36.9838C37.891 36.9838 37.9442 36.9811 37.9973 36.9784C38.0505 36.9784 38.1037 36.9838 38.1568 36.9838V36.9703C39.0818 36.9109 40.0015 36.5466 40.4082 35.7208C41.3572 33.7968 40.7671 31.4112 41.2402 29.3684C41.7107 27.3364 42.7128 25.442 44.3714 24.1629C46.8886 22.2199 49.7647 21.2593 52.8587 20.9543C53.5525 20.8869 54.1319 21.4886 54.0602 22.1903C53.6721 26.0816 51.3941 37.2212 38.1409 37.8041Z" fill="#A8ABB2"/>
</svg>
